<svg xmlns="http://www.w3.org/2000/svg" viewBox="0 0 512 512" role="img" aria-label="My Wallet icon">
  <defs>
    <linearGradient id="steel" x1="0" x2="1" y1="0" y2="1">
      <stop offset="0" stop-color="#f4f1eb"/>
      <stop offset="1" stop-color="#9fa8ad"/>
    </linearGradient>
    <linearGradient id="blue" x1="0" x2="1" y1="0" y2="1">
      <stop offset="0" stop-color="#3d7da4"/>
      <stop offset="1" stop-color="#1f4f70"/>
    </linearGradient>
    <filter id="shadow" x="-20%" y="-20%" width="140%" height="140%">
      <feDropShadow dx="0" dy="14" stdDeviation="16" flood-color="#071018" flood-opacity=".35"/>
    </filter>
  </defs>
  <rect width="512" height="512" rx="110" fill="#102331"/>
  <rect x="74" y="318" width="364" height="94" rx="22" fill="url(#steel)" opacity=".98" filter="url(#shadow)"/>
  <text x="256" y="376" font-family="Arial, sans-serif" font-size="44" font-weight="800" text-anchor="middle" fill="#b88a34">My Wallet</text>
  <rect x="142" y="112" width="232" height="208" rx="34" fill="url(#blue)" filter="url(#shadow)"/>
  <path d="M154 142h205" stroke="#76a7c3" stroke-width="8" stroke-linecap="round" opacity=".55"/>
  <path d="M374 188h54c18 0 32 14 32 32v45c0 18-14 32-32 32h-54v-109z" fill="#174058"/>
  <circle cx="416" cy="244" r="19" fill="#d6d1c5" stroke="#6f7b82" stroke-width="5"/>
  <path d="M167 121c10-18 32-28 57-28h108c29 0 52 16 60 40" fill="none" stroke="#5f93b1" stroke-width="10" stroke-linecap="round" opacity=".8"/>
</svg>
